<svg xmlns="http://www.w3.org/2000/svg" version="1.1" xmlns:xlink="http://www.w3.org/1999/xlink" xmlns:svgjs="http://svgjs.dev/svgjs" width="2000" height="1500" viewBox="0 0 2000 1500"><rect width="2000" height="1500" fill="#000000"></rect><g transform="matrix(0.75,0,0,0.75,249.090909090909,580.1548379173017)"><svg viewBox="0 0 396 89" data-background-color="#000000" preserveAspectRatio="xMidYMid meet" height="449" width="2000" xmlns="http://www.w3.org/2000/svg" xmlns:xlink="http://www.w3.org/1999/xlink"><g id="tight-bounds" transform="matrix(1,0,0,1,0.2400000000000091,0.38855063210138496)"><svg viewBox="0 0 395.52 88.22289873579722" height="88.22289873579722" width="395.52"><g><svg viewBox="0 0 535.3243766385481 119.40702940682239" height="88.22289873579722" width="395.52"><g transform="matrix(1,0,0,1,0,16.50270811628298)"><svg viewBox="0 0 395.52 86.40161317425643" height="86.40161317425643" width="395.52"><g id="textblocktransform"><svg viewBox="0 0 395.52 86.40161317425643" height="86.40161317425643" width="395.52" id="textblock"><g><svg viewBox="0 0 395.52 86.40161317425643" height="86.40161317425643" width="395.52"><g transform="matrix(1,0,0,1,0,0)"><svg width="395.52" viewBox="1.23 -31.95 148.76000000000002 32.5" height="86.40161317425643" data-palette-color="url(#f7c460a7-6426-4d64-a41b-baeb1b1c610a)"></svg></g></svg></g></svg></g></svg></g><g transform="matrix(1,0,0,1,415.9173472317257,0)"><svg viewBox="0 0 119.40702940682239 119.40702940682239" height="119.40702940682239" width="119.40702940682239"><g data-palette-color="url(#8c60d91f-cc02-42ed-9d8d-91bb7756c98d)"></g></svg></g></svg></g><defs></defs><mask id="c760f48c-001e-4079-b177-acafa44bf52f"><g id="SvgjsG2035"><svg viewBox="0 0 395.52 88.22289873579722" height="88.22289873579722" width="395.52"><g><svg viewBox="0 0 535.3243766385481 119.40702940682239" height="88.22289873579722" width="395.52"><g transform="matrix(1,0,0,1,0,16.50270811628298)"><svg viewBox="0 0 395.52 86.40161317425643" height="86.40161317425643" width="395.52"><g id="SvgjsG2034"><svg viewBox="0 0 395.52 86.40161317425643" height="86.40161317425643" width="395.52" id="SvgjsSvg2033"><g><svg viewBox="0 0 395.52 86.40161317425643" height="86.40161317425643" width="395.52"><g transform="matrix(1,0,0,1,0,0)"><svg width="395.52" viewBox="1.23 -31.95 148.76000000000002 32.5" height="86.40161317425643" data-palette-color="url(#f7c460a7-6426-4d64-a41b-baeb1b1c610a)"><path d="M14.2-29.15L5.43 0 1.23 0 11.23-31.95 17.78-31.95 27.8 0 23.6 0 14.83-29.15 14.2-29.15ZM21.78-12.88L21.78-9.43 7.23-9.43 7.23-12.88 21.78-12.88ZM50.82-15.8L50.82 0 46.8 0 46.97-5.93 46.82-6.55 46.82-14.33 46.85-15.75Q46.85-18.73 45.34-20.15 43.82-21.58 40.55-21.58L40.55-21.58Q37.92-21.58 35.73-20.83 33.55-20.08 31.85-19.07L31.85-19.07 32.22-22.53Q33.17-23.1 34.48-23.66 35.8-24.23 37.48-24.6 39.17-24.98 41.2-24.98L41.2-24.98Q43.82-24.98 45.66-24.34 47.5-23.7 48.64-22.5 49.77-21.3 50.3-19.6 50.82-17.9 50.82-15.8L50.82-15.8ZM38.4 0.53L38.4 0.53Q34.77 0.53 32.84-1.24 30.9-3 30.9-6.28L30.9-6.28 30.9-7Q30.9-10.38 32.98-12.04 35.07-13.7 39.62-14.35L39.62-14.35 47.35-15.45 47.57-12.5 40.12-11.43Q37.32-11.03 36.12-10.06 34.92-9.1 34.92-7.23L34.92-7.23 34.92-6.83Q34.92-4.9 36.11-3.88 37.3-2.85 39.67-2.85L39.67-2.85Q41.77-2.85 43.27-3.58 44.77-4.3 45.7-5.53 46.62-6.75 46.95-8.25L46.95-8.25 47.57-5.5 46.8-5.5Q46.45-3.9 45.48-2.53 44.52-1.15 42.8-0.31 41.07 0.53 38.4 0.53ZM64.65 0.55L64.65 0.55Q61.7 0.55 59.5-0.09 57.3-0.73 55.85-1.48L55.85-1.48 55.47-5.23Q57.3-4.28 59.48-3.58 61.67-2.88 64.45-2.88L64.45-2.88Q67.27-2.88 68.7-3.78 70.12-4.67 70.12-6.45L70.12-6.45 70.12-6.73Q70.12-7.88 69.58-8.63 69.05-9.38 67.65-9.95 66.25-10.53 63.67-11.1L63.67-11.1Q60.6-11.78 58.82-12.69 57.05-13.6 56.28-14.95 55.52-16.3 55.52-18.25L55.52-18.25 55.52-18.48Q55.52-21.68 57.75-23.33 59.97-24.98 64.45-24.98L64.45-24.98Q67.32-24.98 69.43-24.33 71.55-23.68 72.9-22.88L72.9-22.88 73.27-19.45Q71.65-20.4 69.55-21.03 67.45-21.65 64.82-21.65L64.82-21.65Q62.92-21.65 61.75-21.26 60.57-20.88 60.05-20.16 59.52-19.45 59.52-18.45L59.52-18.45 59.52-18.25Q59.52-17.15 60.05-16.39 60.57-15.63 61.93-15.06 63.3-14.5 65.72-13.98L65.72-13.98Q68.84-13.35 70.68-12.48 72.52-11.6 73.32-10.26 74.12-8.93 74.12-6.83L74.12-6.83 74.12-6.4Q74.12-2.95 71.72-1.2 69.32 0.55 64.65 0.55ZM97.57-15.8L97.57 0 93.54 0 93.72-5.93 93.57-6.55 93.57-14.33 93.59-15.75Q93.59-18.73 92.08-20.15 90.57-21.58 87.29-21.58L87.29-21.58Q84.67-21.58 82.48-20.83 80.29-20.08 78.59-19.07L78.59-19.07 78.97-22.53Q79.92-23.1 81.23-23.66 82.54-24.23 84.23-24.6 85.92-24.98 87.94-24.98L87.94-24.98Q90.57-24.98 92.41-24.34 94.24-23.7 95.38-22.5 96.52-21.3 97.04-19.6 97.57-17.9 97.57-15.8L97.57-15.8ZM85.14 0.53L85.14 0.53Q81.52 0.53 79.58-1.24 77.64-3 77.64-6.28L77.64-6.28 77.64-7Q77.64-10.38 79.73-12.04 81.82-13.7 86.37-14.35L86.37-14.35 94.09-15.45 94.32-12.5 86.87-11.43Q84.07-11.03 82.87-10.06 81.67-9.1 81.67-7.23L81.67-7.23 81.67-6.83Q81.67-4.9 82.86-3.88 84.04-2.85 86.42-2.85L86.42-2.85Q88.52-2.85 90.02-3.58 91.52-4.3 92.44-5.53 93.37-6.75 93.69-8.25L93.69-8.25 94.32-5.5 93.54-5.5Q93.19-3.9 92.23-2.53 91.27-1.15 89.54-0.31 87.82 0.53 85.14 0.53ZM124.14-15.63L124.14 0 120.09 0 120.09-15.18Q120.09-17.15 119.55-18.57 119.02-20 117.8-20.79 116.59-21.58 114.49-21.58L114.49-21.58Q112.57-21.58 111.15-20.85 109.74-20.13 108.87-18.89 107.99-17.65 107.64-16.07L107.64-16.07 106.92-18.95 107.79-18.95Q108.19-20.6 109.19-21.96 110.19-23.33 111.88-24.14 113.57-24.95 116.02-24.95L116.02-24.95Q118.92-24.95 120.7-23.85 122.49-22.75 123.32-20.69 124.14-18.63 124.14-15.63L124.14-15.63ZM107.82-18.32L107.82 0 103.77 0 103.77-24.4 107.82-24.4 107.64-18.55 107.82-18.32ZM140.66 0.55L140.66 0.55Q135.09 0.55 132.26-2.18 129.44-4.9 129.44-9.98L129.44-9.98 129.44-14.33Q129.44-19.48 132.06-22.26 134.69-25.05 139.74-25.05L139.74-25.05Q143.14-25.05 145.41-23.79 147.69-22.53 148.84-20.2 149.99-17.88 149.99-14.65L149.99-14.65 149.99-13.75Q149.99-12.95 149.93-12.15 149.86-11.35 149.76-10.58L149.76-10.58 146.04-10.58Q146.09-11.78 146.1-12.85 146.11-13.93 146.11-14.83L146.11-14.83Q146.11-17.05 145.4-18.59 144.69-20.13 143.28-20.94 141.86-21.75 139.74-21.75L139.74-21.75Q136.59-21.75 135.01-19.93 133.44-18.1 133.44-14.7L133.44-14.7 133.44-12.38 133.46-11.88 133.46-9.55Q133.46-8.03 133.91-6.8 134.36-5.58 135.33-4.69 136.29-3.8 137.78-3.34 139.26-2.88 141.31-2.88L141.31-2.88Q143.69-2.88 145.74-3.5 147.79-4.13 149.59-5.2L149.59-5.2 149.21-1.7Q147.59-0.68 145.44-0.06 143.29 0.55 140.66 0.55ZM148.91-13.63L148.91-10.58 131.56-10.58 131.56-13.63 148.91-13.63Z" opacity="1" transform="matrix(1,0,0,1,0,0)" fill="white" class="wordmark-text-0" id="SvgjsPath2032"></path></svg></g></svg></g></svg></g></svg></g><g transform="matrix(1,0,0,1,415.9173472317257,0)"><svg viewBox="0 0 119.40702940682239 119.40702940682239" height="119.40702940682239" width="119.40702940682239"><g data-palette-color="url(#8c60d91f-cc02-42ed-9d8d-91bb7756c98d)"><rect width="32.637921371198125" height="119.40702940682239" fill="black" stroke="transparent" x="0" fill-opacity="1"></rect><rect width="32.637921371198125" height="119.40702940682239" fill="black" stroke="transparent" x="39.802343135607465" fill-opacity="0.75"></rect><rect width="32.637921371198125" height="119.40702940682239" fill="black" stroke="transparent" x="79.60468627121493" fill-opacity="0.5"></rect></g></svg></g></svg></g><defs><mask></mask></defs></svg><rect width="395.52" height="88.22289873579722" fill="black" stroke="none" visibility="hidden"></rect></g></mask><linearGradient x1="0" x2="1" y1="0.5" y2="0.5" id="f7c460a7-6426-4d64-a41b-baeb1b1c610a"><stop stop-color="#ffa62e" offset="0"></stop><stop stop-color="#f71b3d" offset="1"></stop></linearGradient><rect width="395.52" height="88.22289873579722" fill="url(#f7c460a7-6426-4d64-a41b-baeb1b1c610a)" mask="url(#c760f48c-001e-4079-b177-acafa44bf52f)" data-fill-palette-color="primary"></rect><mask id="74faa561-7735-4665-b3c9-4709df56802e"><g id="SvgjsG2050"><svg viewBox="0 0 395.52 88.22289873579722" height="88.22289873579722" width="395.52"><g><svg viewBox="0 0 535.3243766385481 119.40702940682239" height="88.22289873579722" width="395.52"><g transform="matrix(1,0,0,1,0,16.50270811628298)"><svg viewBox="0 0 395.52 86.40161317425643" height="86.40161317425643" width="395.52"><g id="SvgjsG2049"><svg viewBox="0 0 395.52 86.40161317425643" height="86.40161317425643" width="395.52" id="SvgjsSvg2048"><g><svg viewBox="0 0 395.52 86.40161317425643" height="86.40161317425643" width="395.52"><g transform="matrix(1,0,0,1,0,0)"><svg width="395.52" viewBox="1.23 -31.95 148.76000000000002 32.5" height="86.40161317425643" data-palette-color="url(#f7c460a7-6426-4d64-a41b-baeb1b1c610a)"></svg></g></svg></g></svg></g></svg></g><g transform="matrix(1,0,0,1,415.9173472317257,0)"><svg viewBox="0 0 119.40702940682239 119.40702940682239" height="119.40702940682239" width="119.40702940682239"><g data-palette-color="url(#8c60d91f-cc02-42ed-9d8d-91bb7756c98d)"><rect width="32.637921371198125" height="119.40702940682239" fill="white" stroke="transparent" x="0" fill-opacity="1"></rect><rect width="32.637921371198125" height="119.40702940682239" fill="white" stroke="transparent" x="39.802343135607465" fill-opacity="0.75"></rect><rect width="32.637921371198125" height="119.40702940682239" fill="white" stroke="transparent" x="79.60468627121493" fill-opacity="0.5"></rect></g></svg></g></svg></g><defs><mask></mask></defs><mask><g id="SvgjsG2047"><svg viewBox="0 0 395.52 88.22289873579722" height="88.22289873579722" width="395.52"><g><svg viewBox="0 0 535.3243766385481 119.40702940682239" height="88.22289873579722" width="395.52"><g transform="matrix(1,0,0,1,0,16.50270811628298)"><svg viewBox="0 0 395.52 86.40161317425643" height="86.40161317425643" width="395.52"><g id="SvgjsG2046"><svg viewBox="0 0 395.52 86.40161317425643" height="86.40161317425643" width="395.52" id="SvgjsSvg2045"><g><svg viewBox="0 0 395.52 86.40161317425643" height="86.40161317425643" width="395.52"><g transform="matrix(1,0,0,1,0,0)"><svg width="395.52" viewBox="1.23 -31.95 148.76000000000002 32.5" height="86.40161317425643" data-palette-color="url(#f7c460a7-6426-4d64-a41b-baeb1b1c610a)"><path d="M14.2-29.15L5.43 0 1.23 0 11.23-31.95 17.78-31.95 27.8 0 23.6 0 14.83-29.15 14.2-29.15ZM21.78-12.88L21.78-9.43 7.23-9.43 7.23-12.88 21.78-12.88ZM50.82-15.8L50.82 0 46.8 0 46.97-5.93 46.82-6.55 46.82-14.33 46.85-15.75Q46.85-18.73 45.34-20.15 43.82-21.58 40.55-21.58L40.55-21.58Q37.92-21.58 35.73-20.83 33.55-20.08 31.85-19.07L31.85-19.07 32.22-22.53Q33.17-23.1 34.48-23.66 35.8-24.23 37.48-24.6 39.17-24.98 41.2-24.98L41.2-24.98Q43.82-24.98 45.66-24.34 47.5-23.7 48.64-22.5 49.77-21.3 50.3-19.6 50.82-17.9 50.82-15.8L50.82-15.8ZM38.4 0.53L38.4 0.53Q34.77 0.53 32.84-1.24 30.9-3 30.9-6.28L30.9-6.28 30.9-7Q30.9-10.38 32.98-12.04 35.07-13.7 39.62-14.35L39.62-14.35 47.35-15.45 47.57-12.5 40.12-11.43Q37.32-11.03 36.12-10.06 34.92-9.1 34.92-7.23L34.92-7.23 34.92-6.83Q34.92-4.9 36.11-3.88 37.3-2.85 39.67-2.85L39.67-2.85Q41.77-2.85 43.27-3.58 44.77-4.3 45.7-5.53 46.62-6.75 46.95-8.25L46.95-8.25 47.57-5.5 46.8-5.5Q46.45-3.9 45.48-2.53 44.52-1.15 42.8-0.31 41.07 0.53 38.4 0.53ZM64.65 0.55L64.65 0.55Q61.7 0.55 59.5-0.09 57.3-0.73 55.85-1.48L55.85-1.48 55.47-5.23Q57.3-4.28 59.48-3.58 61.67-2.88 64.45-2.88L64.45-2.88Q67.27-2.88 68.7-3.78 70.12-4.67 70.12-6.45L70.12-6.45 70.12-6.73Q70.12-7.88 69.58-8.63 69.05-9.38 67.65-9.95 66.25-10.53 63.67-11.1L63.67-11.1Q60.6-11.78 58.82-12.69 57.05-13.6 56.28-14.95 55.52-16.3 55.52-18.25L55.52-18.25 55.52-18.48Q55.52-21.68 57.75-23.33 59.97-24.98 64.45-24.98L64.45-24.98Q67.32-24.98 69.43-24.33 71.55-23.68 72.9-22.88L72.9-22.88 73.27-19.45Q71.65-20.4 69.55-21.03 67.45-21.65 64.82-21.65L64.82-21.65Q62.92-21.65 61.75-21.26 60.57-20.88 60.05-20.16 59.52-19.45 59.52-18.45L59.52-18.45 59.52-18.25Q59.52-17.15 60.05-16.39 60.57-15.63 61.93-15.06 63.3-14.5 65.72-13.98L65.72-13.98Q68.84-13.35 70.68-12.48 72.52-11.6 73.32-10.26 74.12-8.93 74.12-6.83L74.12-6.83 74.12-6.4Q74.12-2.95 71.72-1.2 69.32 0.55 64.65 0.55ZM97.57-15.8L97.57 0 93.54 0 93.72-5.93 93.57-6.55 93.57-14.33 93.59-15.75Q93.59-18.73 92.08-20.15 90.57-21.58 87.29-21.58L87.29-21.58Q84.67-21.58 82.48-20.83 80.29-20.08 78.59-19.07L78.59-19.07 78.97-22.53Q79.92-23.1 81.23-23.66 82.54-24.23 84.23-24.6 85.92-24.98 87.94-24.98L87.94-24.98Q90.57-24.98 92.41-24.34 94.24-23.7 95.38-22.5 96.52-21.3 97.04-19.6 97.57-17.9 97.57-15.8L97.57-15.8ZM85.14 0.53L85.14 0.53Q81.52 0.53 79.58-1.24 77.64-3 77.64-6.28L77.64-6.28 77.64-7Q77.64-10.38 79.73-12.04 81.82-13.7 86.37-14.35L86.37-14.35 94.09-15.45 94.32-12.5 86.87-11.43Q84.07-11.03 82.87-10.06 81.67-9.1 81.67-7.23L81.67-7.23 81.67-6.83Q81.67-4.9 82.86-3.88 84.04-2.85 86.42-2.85L86.42-2.85Q88.52-2.85 90.02-3.58 91.52-4.3 92.44-5.53 93.37-6.75 93.69-8.25L93.69-8.25 94.32-5.5 93.54-5.5Q93.19-3.9 92.23-2.53 91.27-1.15 89.54-0.31 87.82 0.53 85.14 0.53ZM124.14-15.63L124.14 0 120.09 0 120.09-15.18Q120.09-17.15 119.55-18.57 119.02-20 117.8-20.79 116.59-21.58 114.49-21.58L114.49-21.58Q112.57-21.58 111.15-20.85 109.74-20.13 108.87-18.89 107.99-17.65 107.64-16.07L107.64-16.07 106.92-18.95 107.79-18.95Q108.19-20.6 109.19-21.96 110.19-23.33 111.88-24.14 113.57-24.95 116.02-24.95L116.02-24.95Q118.92-24.95 120.7-23.85 122.49-22.75 123.32-20.69 124.14-18.63 124.14-15.63L124.14-15.63ZM107.82-18.32L107.82 0 103.77 0 103.77-24.4 107.82-24.4 107.64-18.55 107.82-18.32ZM140.66 0.55L140.66 0.55Q135.09 0.55 132.26-2.18 129.44-4.9 129.44-9.98L129.44-9.98 129.44-14.33Q129.44-19.48 132.06-22.26 134.69-25.05 139.74-25.05L139.74-25.05Q143.14-25.05 145.41-23.79 147.69-22.53 148.84-20.2 149.99-17.88 149.99-14.65L149.99-14.65 149.99-13.75Q149.99-12.95 149.93-12.15 149.86-11.35 149.76-10.58L149.76-10.58 146.04-10.58Q146.09-11.78 146.1-12.85 146.11-13.93 146.11-14.83L146.11-14.83Q146.11-17.05 145.4-18.59 144.69-20.13 143.28-20.94 141.86-21.75 139.74-21.75L139.74-21.75Q136.59-21.75 135.01-19.93 133.44-18.1 133.44-14.7L133.44-14.7 133.44-12.38 133.46-11.88 133.46-9.55Q133.46-8.03 133.91-6.8 134.36-5.58 135.33-4.69 136.29-3.8 137.78-3.34 139.26-2.88 141.31-2.88L141.31-2.88Q143.69-2.88 145.74-3.5 147.79-4.13 149.59-5.2L149.59-5.2 149.21-1.7Q147.59-0.68 145.44-0.06 143.29 0.55 140.66 0.55ZM148.91-13.63L148.91-10.58 131.56-10.58 131.56-13.63 148.91-13.63Z" opacity="1" transform="matrix(1,0,0,1,0,0)" fill="black" class="wordmark-text-0" id="SvgjsPath2044"></path></svg></g></svg></g></svg></g></svg></g><g transform="matrix(1,0,0,1,415.9173472317257,0)"><svg viewBox="0 0 119.40702940682239 119.40702940682239" height="119.40702940682239" width="119.40702940682239"><g data-palette-color="url(#8c60d91f-cc02-42ed-9d8d-91bb7756c98d)"><rect width="32.637921371198125" height="119.40702940682239" fill="black" stroke="transparent" x="0" fill-opacity="1"></rect><rect width="32.637921371198125" height="119.40702940682239" fill="black" stroke="transparent" x="39.802343135607465" fill-opacity="0.75"></rect><rect width="32.637921371198125" height="119.40702940682239" fill="black" stroke="transparent" x="79.60468627121493" fill-opacity="0.5"></rect></g></svg></g></svg></g><defs><mask></mask></defs></svg><rect width="395.52" height="88.22289873579722" fill="black" stroke="none" visibility="hidden"></rect></g></mask></svg><rect width="395.52" height="88.22289873579722" fill="black" stroke="none" visibility="hidden"></rect></g></mask><linearGradient x1="0" x2="1" y1="0.5" y2="0.5" id="8c60d91f-cc02-42ed-9d8d-91bb7756c98d"><stop stop-color="#ffa62e" offset="0"></stop><stop stop-color="#f71b3d" offset="1"></stop></linearGradient><rect width="395.52" height="88.22289873579722" fill="url(#8c60d91f-cc02-42ed-9d8d-91bb7756c98d)" mask="url(#74faa561-7735-4665-b3c9-4709df56802e)" data-fill-palette-color="accent"></rect></svg><rect width="395.52" height="88.22289873579722" fill="none" stroke="none" visibility="hidden"></rect></g></svg></g></svg>