<svg xmlns="http://www.w3.org/2000/svg" version="1.1" xmlns:xlink="http://www.w3.org/1999/xlink" xmlns:svgjs="http://svgjs.dev/svgjs" width="2000" height="1500" viewBox="0 0 2000 1500"><rect width="2000" height="1500" fill="#fafafa"></rect><g transform="matrix(0.75,0,0,0.75,249.090909090909,278.98548387096776)"><svg viewBox="0 0 396 248" data-background-color="#fafafa" preserveAspectRatio="xMidYMid meet" height="1252" width="2000" xmlns="http://www.w3.org/2000/svg" xmlns:xlink="http://www.w3.org/1999/xlink"><g id="tight-bounds" transform="matrix(1,0,0,1,0.2400000000000091,0.4000000000000057)"><svg viewBox="0 0 395.52 247.2" height="247.2" width="395.52"><g><svg></svg></g><g><svg viewBox="0 0 395.52 247.2" height="247.2" width="395.52"><mask id="7824bf3d-902f-43c2-a4f6-124f928efab4"><rect width="395.52" height="247.2" fill="white"></rect><g transform="matrix(1,0,0,1,0,82.23160400424413)" id="clone"><svg viewBox="0 0 395.52 82.73679199151174" height="82.73679199151174" width="395.52"><g><svg viewBox="0 0 395.52 82.73679199151174" height="82.73679199151174" width="395.52"><g><svg viewBox="0 0 395.52 82.73679199151174" height="82.73679199151174" width="395.52"><g><svg viewBox="0 0 395.52 82.73679199151174" height="82.73679199151174" width="395.52"><g id="SvgjsG1134"><svg viewBox="0 0 395.52 82.73679199151174" height="82.73679199151174" width="395.52" id="SvgjsSvg1133"><g><svg viewBox="0 0 395.52 82.73679199151174" height="82.73679199151174" width="395.52"><g transform="matrix(1,0,0,1,0,0)"><svg width="395.52" viewBox="-2.2199999999999998 -41.84 212.68 45.28" height="82.73679199151174" data-palette-color="#130912"><path d="M13.28-8.59L17.92-8.59 17.92 0 0.78 0 0.78-8.59 4.64-8.59 11.33-30.25 6.23-30.25 6.23-38.84 30.42-38.84 39.09-8.59 42.92-8.59 42.92 0 21.07 0 21.07-8.59 24.24-8.59 23.19-12.74 14.38-12.74 13.28-8.59ZM15.63-18.65L22.02-18.65 19.19-30.54 15.63-18.65ZM53.83 0.44L53.83 0.44Q51.34 0.44 49.31-0.54L49.31-0.54Q47.26-1.49 46.04-3.3 44.82-5.1 44.82-7.5L44.82-7.5Q44.82-10.08 46.26-11.89L46.26-11.89Q47.7-13.65 50.03-14.53 52.37-15.41 55.08-15.41L55.08-15.41Q58.27-15.41 61.23-14.45L61.23-14.45 61.23-15.55Q61.23-17.5 59.58-18.53 57.93-19.56 55.12-19.56L55.12-19.56Q53.93-19.56 52.44-19.26 50.95-18.97 49.53-18.46 48.12-17.94 47.07-17.31L47.07-17.31 46.36-17.6 46.36-24.71Q49.31-25.76 52.39-26.21 55.47-26.66 58.13-26.66L58.13-26.66Q72.97-26.66 72.97-18.31L72.97-18.31 72.97-7.35 75.27-7.35 75.27 0 62.77 0 61.67-4Q60.62-1.95 58.4-0.76 56.17 0.44 53.83 0.44ZM58.42-5.81L58.42-5.81Q59.23-5.81 60.07-6.08 60.91-6.35 61.23-6.64L61.23-6.64 61.23-10.74Q60.86-10.79 60.06-11.04L60.06-11.04Q59.23-11.25 58.62-11.25L58.62-11.25Q57.32-11.25 56.55-10.45 55.78-9.64 55.78-8.3L55.78-8.3Q55.78-7.3 56.5-6.56 57.22-5.81 58.42-5.81ZM92.77 0.44L92.77 0.44Q87.76 0.44 83.91-2.2L83.91-2.2 83.1 0 78.56 0 78.56-9.64 84-9.64Q84.32-7.79 85.74-6.32 87.15-4.86 89.01-4.86L89.01-4.86Q89.72-4.86 90.24-5.25 90.77-5.64 90.77-6.54L90.77-6.54Q90.77-7.45 89.74-8.18L89.74-8.18Q88.69-8.94 86.62-9.91L86.62-9.91Q84.1-11.16 82.51-12.18L82.51-12.18Q80.9-13.21 79.73-14.88 78.56-16.55 78.56-18.9L78.56-18.9Q78.56-21.31 80.15-23.1L80.15-23.1Q81.73-24.85 84.32-25.76 86.91-26.66 89.96-26.66L89.96-26.66Q93.94-26.66 97.36-24.56L97.36-24.56 97.97-26.15 102.02-26.15 102.02-18.36 97.31-18.36Q96.7-19.95 95.55-20.85 94.4-21.75 92.87-21.75L92.87-21.75Q91.06-21.75 91.06-20.61L91.06-20.61Q91.08-19.82 92.01-19.26L92.01-19.26Q92.94-18.73 95.01-17.8L95.01-17.8Q96.31-17.26 97.38-16.72 98.46-16.19 99.31-15.7L99.31-15.7Q101.02-14.7 102.29-12.88 103.56-11.06 103.56-8.35L103.56-8.35Q103.56-5.47 102.07-3.52L102.07-3.52Q100.58-1.54 98.12-0.55 95.65 0.44 92.77 0.44ZM116.84 0.44L116.84 0.44Q114.35 0.44 112.32-0.54L112.32-0.54Q110.27-1.49 109.05-3.3 107.83-5.1 107.83-7.5L107.83-7.5Q107.83-10.08 109.27-11.89L109.27-11.89Q110.71-13.65 113.04-14.53 115.37-15.41 118.08-15.41L118.08-15.41Q121.28-15.41 124.24-14.45L124.24-14.45 124.24-15.55Q124.24-17.5 122.59-18.53 120.94-19.56 118.13-19.56L118.13-19.56Q116.94-19.56 115.45-19.26 113.96-18.97 112.54-18.46 111.13-17.94 110.08-17.31L110.08-17.31 109.37-17.6 109.37-24.71Q112.32-25.76 115.4-26.21 118.47-26.66 121.14-26.66L121.14-26.66Q135.98-26.66 135.98-18.31L135.98-18.31 135.98-7.35 138.27-7.35 138.27 0 125.77 0 124.68-4Q123.63-1.95 121.4-0.76 119.18 0.44 116.84 0.44ZM121.43-5.81L121.43-5.81Q122.23-5.81 123.08-6.08 123.92-6.35 124.24-6.64L124.24-6.64 124.24-10.74Q123.87-10.79 123.06-11.04L123.06-11.04Q122.23-11.25 121.62-11.25L121.62-11.25Q120.33-11.25 119.56-10.45 118.79-9.64 118.79-8.3L118.79-8.3Q118.79-7.3 119.51-6.56 120.23-5.81 121.43-5.81ZM174.53-16.6L174.53-16.6 174.53-7.06 177.92-7.06 177.92 0 162.81 0 162.81-16.65Q162.81-17.7 162.14-18.51 161.46-19.31 160.51-19.31L160.51-19.31Q158.73-19.31 158.27-17.53L158.27-17.53Q157.78-15.7 157.78-12.4L157.78-12.4 157.78-7.06 157.83-7.06 157.83 0 142.57 0 142.57-7.06 146.11-7.06 146.11-18.6 142.57-18.6 142.57-25.2 157.78-26.66 157.78-23Q159.46-25 161.61-25.83 163.76-26.66 166.47-26.66L166.47-26.66Q174.53-26.66 174.53-16.6ZM194.96 0.44L194.96 0.44Q190.42 0.44 187.07-1.25L187.07-1.25Q183.7-2.91 181.91-6.01 180.11-9.11 180.11-13.26L180.11-13.26Q180.11-17.36 181.87-20.39L181.87-20.39Q183.61-23.39 186.78-25.02 189.95-26.66 194.23-26.66L194.23-26.66Q198.16-26.66 201.16-25.12L201.16-25.12Q204.16-23.56 205.81-20.7 207.46-17.85 207.46-14.04L207.46-14.04Q207.46-12.72 207.07-11.55L207.07-11.55 191.86-11.55Q191.86-9.25 193.59-7.87 195.32-6.49 197.77-6.49L197.77-6.49Q199.62-6.49 201.84-7.14 204.06-7.79 206.31-9.16L206.31-9.16 206.73-9.01 206.73-2.44Q204.21-1 201.56-0.28 198.91 0.44 194.96 0.44ZM191.86-16.55L191.86-16.55 191.86-15.84 198.11-15.84 198.11-16.36Q198.11-18.09 197.31-19.35 196.52-20.61 194.96-20.61L194.96-20.61Q193.66-20.61 192.76-19.32 191.86-18.04 191.86-16.55Z" opacity="1" transform="matrix(1,0,0,1,0,0)" fill="black" class="wordmark-text-0" id="SvgjsPath1132" stroke-width="5" stroke="black" stroke-linejoin="round"></path></svg></g></svg></g></svg></g></svg></g><g></g></svg></g></svg></g></svg></g></mask><g mask="url(#7824bf3d-902f-43c2-a4f6-124f928efab4)"><g><path d="M143.22 192.523h29.529v54.668h-109.081v-54.668h24.566l42.575-137.846h-32.457v-54.668h153.949l55.176 192.514h24.375v54.668h-139.056v-54.668h20.174l-6.682-26.411h-56.068zM158.175 128.5h40.667l-18.011-75.669z" fill="#130912" fill-rule="nonzero" stroke="none" stroke-width="1" stroke-linecap="butt" stroke-linejoin="miter" stroke-miterlimit="10" stroke-dasharray="" stroke-dashoffset="0" font-family="none" font-weight="none" font-size="none" text-anchor="none" style="mix-blend-mode: normal" data-fill-palette-color="tertiary"></path></g></g><g transform="matrix(1,0,0,1,0,82.23160400424413)"><svg viewBox="0 0 395.52 82.73679199151174" height="82.73679199151174" width="395.52"><g><svg viewBox="0 0 395.52 82.73679199151174" height="82.73679199151174" width="395.52"><g><svg viewBox="0 0 395.52 82.73679199151174" height="82.73679199151174" width="395.52"><g><svg viewBox="0 0 395.52 82.73679199151174" height="82.73679199151174" width="395.52"><g id="textblocktransform"><svg viewBox="0 0 395.52 82.73679199151174" height="82.73679199151174" width="395.52" id="textblock"><g><svg viewBox="0 0 395.52 82.73679199151174" height="82.73679199151174" width="395.52"><g transform="matrix(1,0,0,1,0,0)"><svg width="395.52" viewBox="-2.2199999999999998 -41.84 212.68 45.28" height="82.73679199151174" data-palette-color="#130912"><path d="M13.28-8.59L17.92-8.59 17.92 0 0.78 0 0.78-8.59 4.64-8.59 11.33-30.25 6.23-30.25 6.23-38.84 30.42-38.84 39.09-8.59 42.92-8.59 42.92 0 21.07 0 21.07-8.59 24.24-8.59 23.19-12.74 14.38-12.74 13.28-8.59ZM15.63-18.65L22.02-18.65 19.19-30.54 15.63-18.65ZM53.83 0.44L53.83 0.44Q51.34 0.44 49.31-0.54L49.31-0.54Q47.26-1.49 46.04-3.3 44.82-5.1 44.82-7.5L44.82-7.5Q44.82-10.08 46.26-11.89L46.26-11.89Q47.7-13.65 50.03-14.53 52.37-15.41 55.08-15.41L55.08-15.41Q58.27-15.41 61.23-14.45L61.23-14.45 61.23-15.55Q61.23-17.5 59.58-18.53 57.93-19.56 55.12-19.56L55.12-19.56Q53.93-19.56 52.44-19.26 50.95-18.97 49.53-18.46 48.12-17.94 47.07-17.31L47.07-17.31 46.36-17.6 46.36-24.71Q49.31-25.76 52.39-26.21 55.47-26.66 58.13-26.66L58.13-26.66Q72.97-26.66 72.97-18.31L72.97-18.31 72.97-7.35 75.27-7.35 75.27 0 62.77 0 61.67-4Q60.62-1.95 58.4-0.76 56.17 0.44 53.83 0.44ZM58.42-5.81L58.42-5.81Q59.23-5.81 60.07-6.08 60.91-6.35 61.23-6.64L61.23-6.64 61.23-10.74Q60.86-10.79 60.06-11.04L60.06-11.04Q59.23-11.25 58.62-11.25L58.62-11.25Q57.32-11.25 56.55-10.45 55.78-9.64 55.78-8.3L55.78-8.3Q55.78-7.3 56.5-6.56 57.22-5.81 58.42-5.81ZM92.77 0.44L92.77 0.44Q87.76 0.44 83.91-2.2L83.91-2.2 83.1 0 78.56 0 78.56-9.64 84-9.64Q84.32-7.79 85.74-6.32 87.15-4.86 89.01-4.86L89.01-4.86Q89.72-4.86 90.24-5.25 90.77-5.64 90.77-6.54L90.77-6.54Q90.77-7.45 89.74-8.18L89.74-8.18Q88.69-8.94 86.62-9.91L86.62-9.91Q84.1-11.16 82.51-12.18L82.51-12.18Q80.9-13.21 79.73-14.88 78.56-16.55 78.56-18.9L78.56-18.9Q78.56-21.31 80.15-23.1L80.15-23.1Q81.73-24.85 84.32-25.76 86.91-26.66 89.96-26.66L89.96-26.66Q93.94-26.66 97.36-24.56L97.36-24.56 97.97-26.15 102.02-26.15 102.02-18.36 97.31-18.36Q96.7-19.95 95.55-20.85 94.4-21.75 92.87-21.75L92.87-21.75Q91.06-21.75 91.06-20.61L91.06-20.61Q91.08-19.82 92.01-19.26L92.01-19.26Q92.94-18.73 95.01-17.8L95.01-17.8Q96.31-17.26 97.38-16.72 98.46-16.19 99.31-15.7L99.31-15.7Q101.02-14.7 102.29-12.88 103.56-11.06 103.56-8.35L103.56-8.35Q103.56-5.47 102.07-3.52L102.07-3.52Q100.58-1.54 98.12-0.55 95.65 0.44 92.77 0.44ZM116.84 0.44L116.84 0.44Q114.35 0.44 112.32-0.54L112.32-0.54Q110.27-1.49 109.05-3.3 107.83-5.1 107.83-7.5L107.83-7.5Q107.83-10.08 109.27-11.89L109.27-11.89Q110.71-13.65 113.04-14.53 115.37-15.41 118.08-15.41L118.08-15.41Q121.28-15.41 124.24-14.45L124.24-14.45 124.24-15.55Q124.24-17.5 122.59-18.53 120.94-19.56 118.13-19.56L118.13-19.56Q116.94-19.56 115.45-19.26 113.96-18.97 112.54-18.46 111.13-17.94 110.08-17.31L110.08-17.31 109.37-17.6 109.37-24.71Q112.32-25.76 115.4-26.21 118.47-26.66 121.14-26.66L121.14-26.66Q135.98-26.66 135.98-18.31L135.98-18.31 135.98-7.35 138.27-7.35 138.27 0 125.77 0 124.68-4Q123.63-1.95 121.4-0.76 119.18 0.44 116.84 0.44ZM121.43-5.81L121.43-5.81Q122.23-5.81 123.08-6.08 123.92-6.35 124.24-6.64L124.24-6.64 124.24-10.74Q123.87-10.79 123.06-11.04L123.06-11.04Q122.23-11.25 121.62-11.25L121.62-11.25Q120.33-11.25 119.56-10.45 118.79-9.64 118.79-8.3L118.79-8.3Q118.79-7.3 119.51-6.56 120.23-5.81 121.43-5.81ZM174.53-16.6L174.53-16.6 174.53-7.06 177.92-7.06 177.92 0 162.81 0 162.81-16.65Q162.81-17.7 162.14-18.51 161.46-19.31 160.51-19.31L160.51-19.31Q158.73-19.31 158.27-17.53L158.27-17.53Q157.78-15.7 157.78-12.4L157.78-12.4 157.78-7.06 157.83-7.06 157.83 0 142.57 0 142.57-7.06 146.11-7.06 146.11-18.6 142.57-18.6 142.57-25.2 157.78-26.66 157.78-23Q159.46-25 161.61-25.83 163.76-26.66 166.47-26.66L166.47-26.66Q174.53-26.66 174.53-16.6ZM194.96 0.44L194.96 0.44Q190.42 0.44 187.07-1.25L187.07-1.25Q183.7-2.91 181.91-6.01 180.11-9.11 180.11-13.26L180.11-13.26Q180.11-17.36 181.87-20.39L181.87-20.39Q183.61-23.39 186.78-25.02 189.95-26.66 194.23-26.66L194.23-26.66Q198.16-26.66 201.16-25.12L201.16-25.12Q204.16-23.56 205.81-20.7 207.46-17.85 207.46-14.04L207.46-14.04Q207.46-12.72 207.07-11.55L207.07-11.55 191.86-11.55Q191.86-9.25 193.59-7.87 195.32-6.49 197.77-6.49L197.77-6.49Q199.62-6.49 201.84-7.14 204.06-7.79 206.31-9.16L206.31-9.16 206.73-9.01 206.73-2.44Q204.21-1 201.56-0.28 198.91 0.44 194.96 0.44ZM191.86-16.55L191.86-16.55 191.86-15.84 198.11-15.84 198.11-16.36Q198.11-18.09 197.31-19.35 196.52-20.61 194.96-20.61L194.96-20.61Q193.66-20.61 192.76-19.32 191.86-18.04 191.86-16.55Z" opacity="1" transform="matrix(1,0,0,1,0,0)" fill="#130912" class="wordmark-text-0" data-fill-palette-color="primary" id="text-0"></path></svg></g></svg></g></svg></g></svg></g><g></g></svg></g></svg></g></svg></g></svg></g><defs></defs></svg><rect width="395.52" height="247.2" fill="none" stroke="none" visibility="hidden"></rect></g></svg></g></svg>